# xmcd
#
# Track frame offsets: 
#        150
#        16913
#        32932
#        50380
#        59180
#        77544
#        86172
#        104302
#        115077
#        129120
#        141294
#        148868
#        163825
#        180362
#        193876
#        205738
#        223626
#        237105
#        255870
#        266277
#
# Disc length: 3743 seconds
#
# Revision: 0
# Processed by: cddbd v1.5.2PL0 Copyright (c) Steve Scherf et al.
# Submitted via: ExactAudioCopy v1.3
#
DISCID=180e9d14
DTITLE=Various Artist - 50 Let České Country - CD1
DYEAR=2016
DGENRE=Country
TTITLE0=Waldemar Matuška - Sedm dostavníků 1966
TTITLE1=Greenhorns - Zatracenej život 1967
TTITLE2=Karel Černoch - Správnej džob 1968
TTITLE3=Rangers - Oh, Shenando 1968
TTITLE4=Mirek Černý and Country Beat Jiřího Brabce - Sto let 1969
TTITLE5=Tomáš Linka and Přímá linka - Hardy 1970
TTITLE6=Mirek Hoffmann and Zelenáči Mirka Hoffmanna - Prokletej vůz 1970
TTITLE7=Ladislav Vodička and Country Beat Jiřího Brabce - Já smyl špínu 
TTITLE7=rosou průhlednou 1971
TTITLE8=Eva Olmerová and Country Beat Jiřího Brabce - Slunce sháním 1971
TTITLE9=Karel Kahovec and Country Beat Jiřího Brabce - Bídnej chlap 1971
TTITLE10=Michal Tučný and Greenhorns - Šlapej dál 1972
TTITLE11=Rangers - Vysočina 1973
TTITLE12=Pavel Bobek - Nedělní ráno 1974
TTITLE13=Jindřich Šťáhlavský and Fešáci - Pojedou 1975
TTITLE14=Waldemar Matuška a Olga Blechová and KTO - Chtěl jsem být kovbo
TTITLE14=jem 1977
TTITLE15=Petr Spálený and Apollo - Když ji potkáš 1979
TTITLE16=Max Presser and Country Beat Jiřího Brabce - Nádherná jízda 198
TTITLE16=0
TTITLE17=Miki Ryvola - Osamělý město 1981
TTITLE18=Naďa Urbánková and Country Beat Jiřího Brabce - V údolí blízko 
TTITLE18=dráhy 1983
TTITLE19=Jiří Schelinger - Že ho neznám, jsem vážně rád 1974
EXTD=
EXTT0=
EXTT1=
EXTT2=
EXTT3=
EXTT4=
EXTT5=
EXTT6=
EXTT7=
EXTT8=
EXTT9=
EXTT10=
EXTT11=
EXTT12=
EXTT13=
EXTT14=
EXTT15=
EXTT16=
EXTT17=
EXTT18=
EXTT19=
PLAYORDER=
